<svg xmlns="http://www.w3.org/2000/svg" xmlns:xlink="http://www.w3.org/1999/xlink" viewBox="0 0 727.68 1467.57"><defs><style>.cls-1{fill:none;}.cls-2{clip-path:url(#clip-path);}.cls-3{fill:#fff;}</style><clipPath id="clip-path" transform="translate(442.89 -61.79)"><rect class="cls-1" width="299.12" height="1591.15"/></clipPath></defs><g id="Layer_2" data-name="Layer 2"><g id="Layer_1-2" data-name="Layer 1"><g class="cls-2"><path class="cls-3" d="M-16.61,61.79c-149.91,0-271.46,121.52-271.46,271.46V631.62c2.54.52,5.13,1,7.85,1.45,12.4,2.11,26.36,3.86,42.72,5.34,7.3.66,15.5,1.27,25.82,1.9,17.74,1.12,37.14,2,57.65,2.9,125.48,5.58,281.6,12.52,388.13,85.62q10.86,7.45,20.72,15.62V333.25C254.82,183.31,133.3,61.79-16.61,61.79Z" transform="translate(442.89 -61.79)"/><path class="cls-3" d="M198.35,1090.74v156.42c0,114.13-92.86,207-207,207s-207-92.86-207-207V1048.89c3.56,1.36,7.15,2.69,10.83,3.92C-41.67,1108.32,111.1,1102,198.35,1090.74Zm84.36-94.31s35.38-217-185.82-258.31S-342,730.94-442.77,618.74c0,0-10.08,262.77,151.93,388v240.42c0,155.89,126.35,282.23,282.23,282.23S273.63,1403,273.63,1247.13V1077S151.89,863.86-152,822.71C-152,822.74,156,805.4,282.71,996.43Z" transform="translate(442.89 -61.79)"/></g></g></g></svg>